<?xml version="1.0" standalone="no"?>
<!DOCTYPE svg PUBLIC "-//W3C//DTD SVG 20010904//EN"
 "http://www.w3.org/TR/2001/REC-SVG-20010904/DTD/svg10.dtd">
<svg version="1.0" xmlns="http://www.w3.org/2000/svg"
 width="909.000000pt" height="909.000000pt" viewBox="0 0 909.000000 909.000000"
 preserveAspectRatio="xMidYMid meet">
<metadata>
Created by potrace 1.14, written by Peter Selinger 2001-2017
</metadata>
<g transform="translate(0.000000,909.000000) scale(0.100000,-0.100000)"
fill="#000000" stroke="none">
<path d="M4232 8950 c-66 -10 -135 -44 -239 -119 l-82 -59 -98 -7 c-67 -5
-118 -15 -161 -32 -44 -17 -67 -22 -75 -15 -7 6 -55 25 -107 42 -84 28 -105
31 -180 28 -68 -4 -101 -11 -164 -38 -138 -58 -216 -140 -268 -283 l-21 -58
-56 2 c-31 1 -67 -3 -81 -9 -14 -5 -27 -9 -30 -9 -3 0 -24 -12 -47 -26 -24
-15 -46 -27 -50 -27 -11 0 -89 -85 -109 -119 -16 -27 -22 -29 -93 -33 -54 -3
-93 -12 -134 -31 -55 -25 -177 -112 -177 -127 0 -3 -14 -16 -30 -29 -29 -21
-32 -21 -63 -6 -79 40 -205 28 -324 -32 -105 -53 -190 -141 -241 -249 -24 -52
-27 -73 -30 -182 l-4 -123 -71 7 c-129 11 -249 -26 -340 -106 -57 -51 -97
-111 -138 -208 -29 -70 -32 -86 -31 -174 1 -82 -1 -98 -14 -98 -8 0 -37 -9
-64 -21 -54 -23 -120 -97 -120 -135 0 -17 -8 -24 -32 -29 -82 -18 -129 -62
-182 -170 -45 -94 -70 -196 -62 -257 10 -72 41 -185 70 -253 29 -68 32 -85 13
-85 -37 0 -121 -34 -153 -62 -46 -41 -88 -125 -114 -230 -12 -45 -33 -125 -47
-177 -22 -82 -25 -107 -20 -190 8 -143 46 -235 128 -313 33 -31 36 -38 22 -43
-52 -17 -148 -143 -176 -230 -74 -230 -32 -465 113 -627 29 -32 46 -59 40 -63
-6 -3 -18 -23 -27 -43 -25 -55 -25 -310 0 -370 38 -94 94 -163 219 -273 l27
-24 -25 -85 c-23 -76 -25 -97 -21 -195 5 -112 23 -185 70 -284 25 -54 144
-182 190 -206 18 -9 52 -29 77 -45 25 -16 68 -36 96 -45 l51 -16 -15 -42 c-21
-58 -20 -188 2 -262 20 -68 75 -177 109 -216 64 -72 206 -149 277 -149 15 0
30 -4 32 -9 6 -16 102 -68 168 -90 36 -12 70 -25 76 -29 5 -4 16 -32 23 -63
25 -116 132 -246 243 -299 35 -17 72 -30 83 -31 12 0 45 -30 85 -78 77 -92
120 -127 219 -177 68 -35 80 -38 169 -41 65 -2 103 2 117 10 25 16 145 2 145
-17 0 -23 129 -173 201 -232 90 -74 126 -97 274 -174 317 -166 621 -241 746
-184 l45 21 28 -27 c43 -43 148 -90 254 -113 79 -17 134 -21 297 -21 181 -1
208 1 282 23 91 25 169 71 185 107 11 24 11 24 59 -21 78 -73 159 -97 280 -83
129 15 353 101 479 183 26 17 54 24 115 28 56 3 98 13 138 31 77 34 168 121
202 194 54 116 41 105 120 99 38 -3 108 -11 155 -18 193 -30 341 -11 455 59
57 34 132 108 170 167 33 51 65 163 65 229 0 33 1 34 28 27 27 -7 148 -6 207
3 126 19 275 87 349 159 47 46 54 59 65 115 8 40 10 92 6 140 l-7 78 55 36
c31 21 69 57 85 80 29 42 33 44 104 56 154 26 313 139 379 268 61 121 48 248
-37 366 -19 27 -34 51 -32 53 2 1 29 10 61 19 72 21 140 82 156 141 25 92 4
238 -45 313 l-16 24 55 -7 c107 -14 252 38 317 111 18 21 44 62 58 92 20 45
23 65 20 130 -3 64 -10 90 -41 154 -39 79 -106 177 -163 238 -42 44 -34 48 83
51 118 2 167 22 210 87 17 26 37 67 43 92 28 106 6 319 -43 415 -57 111 -160
228 -274 309 -29 20 -50 42 -47 49 2 7 25 25 49 39 37 23 50 26 71 18 67 -26
119 -5 178 71 52 66 66 116 66 233 -1 126 -23 211 -80 306 -52 85 -174 203
-257 248 -62 33 -176 64 -222 62 -42 -3 -53 -1 -46 11 4 6 -3 13 -15 16 -11 3
-19 11 -16 18 2 7 -13 29 -33 49 l-38 37 18 37 c11 20 19 56 19 80 0 37 3 43
18 38 86 -27 237 -34 267 -12 28 20 16 139 -23 230 -55 127 -152 236 -212 236
-13 0 -39 10 -57 23 l-33 22 1 82 c1 80 1 83 -46 161 -122 205 -271 356 -455
463 -82 47 -148 79 -165 79 -16 0 -160 145 -189 191 -10 16 -26 59 -35 97 -25
95 -44 130 -105 193 -57 58 -137 107 -248 151 -63 24 -104 57 -133 108 -13 23
-141 165 -187 208 -92 86 -229 148 -351 158 -29 3 -69 11 -89 19 -20 8 -72 17
-115 20 -68 5 -84 3 -128 -18 l-49 -23 -51 49 c-71 69 -138 118 -252 182 -92
51 -261 115 -307 115 -12 0 -42 7 -68 15 -69 20 -226 22 -343 2 l-100 -17 -30
35 c-50 57 -171 120 -270 141 -53 11 -94 13 -99 5 -4 -5 -22 -2 -44 9 -38 18
-151 41 -193 39 -13 -1 -48 -5 -77 -9z"/>
</g>
</svg>
