<?xml version="1.0" standalone="no"?>
<!DOCTYPE svg PUBLIC "-//W3C//DTD SVG 20010904//EN"
 "http://www.w3.org/TR/2001/REC-SVG-20010904/DTD/svg10.dtd">
<svg version="1.0" xmlns="http://www.w3.org/2000/svg"
 width="907.000000pt" height="907.000000pt" viewBox="0 0 907.000000 907.000000"
 preserveAspectRatio="xMidYMid meet">
<metadata>
Created by potrace 1.14, written by Peter Selinger 2001-2017
</metadata>
<g transform="translate(0.000000,907.000000) scale(0.100000,-0.100000)"
fill="#000000" stroke="none">
<path d="M4232 8930 c-66 -10 -135 -44 -239 -119 l-82 -59 -98 -7 c-67 -5
-118 -15 -161 -32 -44 -17 -67 -22 -75 -15 -7 6 -55 25 -107 42 -84 28 -105
31 -180 28 -68 -4 -101 -11 -164 -38 -138 -58 -216 -140 -268 -283 l-21 -58
-56 2 c-31 1 -67 -3 -81 -9 -14 -5 -27 -9 -30 -9 -3 0 -24 -12 -47 -26 -24
-15 -46 -27 -50 -27 -11 0 -89 -85 -109 -119 -16 -27 -22 -29 -93 -33 -54 -3
-93 -12 -134 -31 -55 -25 -177 -112 -177 -127 0 -3 -14 -16 -30 -29 -29 -21
-32 -21 -63 -6 -79 40 -205 28 -324 -32 -105 -53 -190 -141 -241 -249 -24 -52
-27 -73 -30 -182 l-4 -123 -71 7 c-129 11 -249 -26 -340 -106 -57 -51 -97
-111 -138 -208 -29 -70 -32 -86 -31 -174 1 -82 -1 -98 -14 -98 -8 0 -37 -9
-64 -21 -54 -23 -120 -97 -120 -135 0 -17 -8 -24 -32 -29 -82 -18 -129 -62
-182 -170 -45 -94 -70 -196 -62 -257 10 -72 41 -185 70 -253 29 -68 32 -85 13
-85 -37 0 -121 -34 -153 -62 -46 -41 -88 -125 -114 -230 -12 -45 -33 -125 -47
-177 -22 -82 -25 -107 -20 -190 8 -143 46 -235 128 -313 33 -31 36 -38 22 -43
-52 -17 -148 -143 -176 -230 -74 -230 -32 -465 113 -627 29 -32 46 -59 40 -63
-6 -3 -18 -23 -27 -43 -25 -55 -25 -310 0 -370 38 -94 94 -163 219 -273 l27
-24 -25 -85 c-23 -76 -25 -97 -21 -195 5 -112 23 -185 70 -284 25 -54 144
-182 190 -206 18 -9 52 -29 77 -45 25 -16 68 -36 96 -45 l51 -16 -15 -42 c-21
-58 -20 -188 2 -262 20 -68 75 -177 109 -216 40 -45 130 -106 190 -128 83 -30
198 -29 271 3 l54 24 36 -32 c35 -30 36 -34 25 -65 -33 -95 18 -244 120 -350
86 -90 163 -123 295 -129 56 -2 119 0 142 6 l41 9 23 -44 c38 -71 131 -157
213 -197 120 -59 281 -70 434 -30 31 8 57 13 58 12 0 -2 19 -37 40 -78 89
-174 209 -262 387 -284 107 -14 234 23 305 86 12 11 26 18 30 15 20 -13 165
-47 195 -47 18 0 52 9 76 20 l42 19 24 -37 c31 -49 50 -65 121 -100 85 -42
154 -56 246 -49 151 12 251 59 316 148 67 92 58 87 166 92 l97 4 22 -36 c92
-155 270 -209 448 -137 34 14 79 28 99 32 48 9 94 37 160 99 56 53 84 98 96
155 13 67 12 66 95 84 l80 18 77 -37 c129 -61 280 -59 396 5 64 35 103 73 146
144 45 75 50 121 18 168 l-26 37 37 12 c20 6 52 23 70 36 l33 25 72 -33 c64
-29 82 -33 158 -33 81 0 91 2 163 39 80 42 105 61 170 136 64 73 81 119 81
231 0 72 3 98 13 98 6 0 12 4 12 9 0 5 3 17 7 27 5 14 2 16 -18 12 -14 -2 -30
1 -36 7 -7 8 -2 11 22 12 61 2 133 42 196 112 l61 66 101 1 c116 1 156 12 241
69 109 72 186 214 186 344 0 31 -9 86 -19 122 l-19 66 48 52 c84 90 119 193
123 353 l2 98 51 0 c69 0 145 40 215 112 74 77 106 138 120 228 23 150 -7 291
-78 369 -24 25 -43 49 -43 53 0 4 17 19 38 32 49 32 122 111 149 161 12 22 31
76 42 119 43 164 19 298 -83 461 -14 22 -41 69 -61 105 -19 36 -47 78 -62 94
l-27 30 29 20 c116 83 178 183 197 316 29 194 -77 460 -197 500 -19 6 -35 16
-35 21 0 6 -4 7 -10 4 -16 -10 -97 43 -130 85 -36 45 -38 66 -8 73 26 7 38 1
38 -19 0 -26 21 -14 36 21 15 37 20 205 5 205 -4 0 -14 33 -20 73 -7 42 -35
129 -65 203 -58 143 -121 237 -224 338 l-60 60 -12 98 c-17 135 -53 209 -151
308 -84 85 -124 106 -224 122 -59 9 -79 8 -129 -6 -65 -19 -54 -23 -131 49
-12 11 -56 50 -97 87 l-75 68 9 47 c17 92 -19 233 -73 285 -10 10 -21 23 -26
31 -19 30 -78 67 -155 97 -72 28 -91 31 -148 27 -36 -3 -82 -13 -102 -21 -21
-9 -39 -16 -41 -16 -3 0 -7 28 -11 63 -10 89 -31 147 -85 229 -76 117 -184
182 -322 194 -69 6 -82 4 -134 -20 -41 -19 -74 -26 -116 -26 -32 0 -78 -7
-102 -15 -39 -13 -50 -13 -112 3 l-69 18 -16 54 c-33 111 -89 182 -195 249
-80 51 -147 69 -260 73 -159 4 -432 -47 -466 -88 -14 -17 -29 -18 -29 -3 0 23
-91 138 -142 181 -66 55 -124 82 -209 97 -72 12 -89 12 -167 1z"/>
</g>
</svg>
